<svg width="141" height="55" viewBox="0 0 141 55" fill="none" xmlns="http://www.w3.org/2000/svg">
<g clip-path="url(#clip0_61_244)">
<path d="M56.5735 51.2585C29.6837 51.2585 4.9815 40.5952 4.9815 27.4584C4.9815 14.3216 29.6837 3.65835 56.5735 3.63757V0C25.5564 0 0.441406 12.3054 0.441406 27.4584C0.441406 42.6115 25.5564 54.8961 56.5735 54.9169V51.2793V51.2585Z" fill="#282827"/>
<path d="M84.33 51.3625C111.22 51.3625 135.922 40.6992 135.922 27.5624C135.922 14.4256 111.199 3.76236 84.33 3.74157V0.104004C115.326 0.104004 140.462 12.4094 140.462 27.5624C140.462 42.7155 115.347 55.0001 84.33 55.0209V51.3833V51.3625Z" fill="#282827"/>
<path d="M45.5534 24.1743H42.4992C41.715 23.135 40.4561 22.4282 38.9703 22.4282C36.3081 22.4282 34.3476 24.59 34.3476 27.4377C34.3476 30.2854 36.3081 32.4471 38.9703 32.4471C40.4561 32.4471 41.715 31.7404 42.4992 30.7011H45.5534C44.3978 33.3202 42.1071 35.0246 38.9703 35.0246C34.7191 35.0246 31.4998 31.8028 31.4998 27.4585C31.4998 23.1142 34.7191 19.8923 38.9703 19.8923C42.1071 19.8923 44.3978 21.6384 45.5534 24.2158V24.1743Z" fill="#282827"/>
<path d="M55.067 19.8508H57.9768V21.2019H59.1118C62.7645 21.2019 65.5505 23.4884 65.5505 27.1468C65.5505 30.8051 62.7852 33.0916 59.1118 33.0916H57.9768V35.0663H55.067V33.0916H53.932C50.2793 33.0916 47.4933 30.8051 47.4933 27.1468C47.4933 23.4884 50.2586 21.2019 53.932 21.2019H55.067V19.8508ZM55.067 23.821H53.932C52.1572 23.821 50.4031 24.7979 50.4031 27.1468C50.4031 29.4956 52.1572 30.4725 53.932 30.4725H55.067V23.8002V23.821ZM57.9768 23.821V30.4933H59.1118C60.8866 30.4933 62.6407 29.5164 62.6407 27.1675C62.6407 24.8187 60.8866 23.8418 59.1118 23.8418H57.9768V23.821Z" fill="#282827"/>
<path d="M71.3287 22.5737V26.1281H78.7374V28.7887H71.3287V32.364H78.9025V35.0246H68.3777V19.9131H78.9025V22.5737H71.3287Z" fill="#282827"/>
<path d="M89.613 29.2045H85.1554V35.0038H82.2043V19.8923H89.613C93.1831 19.8923 94.8134 22.0333 94.8134 24.5276C94.8134 27.022 93.1831 29.1837 89.613 29.1837V29.2045ZM85.1554 26.5439H89.4066C90.9337 26.5439 91.8417 25.754 91.8417 24.5484C91.8417 23.3428 90.9337 22.5737 89.4066 22.5737H85.1554V26.5439Z" fill="#282827"/>
<path d="M110.58 35.0038H107.443L105.978 31.6573H99.1265L97.6613 35.0038H94.6277L101.149 19.8923H104.038L110.559 35.0038H110.58ZM100.303 28.9966H104.802L102.573 23.8625L100.323 28.9966H100.303Z" fill="#282827"/>
</g>
<defs>
<clipPath id="clip0_61_244">
<rect width="140" height="55" fill="white" transform="translate(0.441406)"/>
</clipPath>
</defs>
</svg>
